<svg width="20" height="20" viewBox="0 0 20 20" fill="none" xmlns="http://www.w3.org/2000/svg">
<path d="M9.99996 1.66669C5.39996 1.66669 1.66663 5.40002 1.66663 10C1.66663 14.6 5.39996 18.3334 9.99996 18.3334C14.6 18.3334 18.3333 14.6 18.3333 10C18.3333 5.40002 14.6 1.66669 9.99996 1.66669ZM16.2166 7.60002L13.9 8.55835C13.475 7.42502 12.5833 6.52502 11.4416 6.10835L12.4 3.79169C14.15 4.45835 15.5416 5.85002 16.2166 7.60002ZM9.99996 12.5C8.61663 12.5 7.49996 11.3834 7.49996 10C7.49996 8.61669 8.61663 7.50002 9.99996 7.50002C11.3833 7.50002 12.5 8.61669 12.5 10C12.5 11.3834 11.3833 12.5 9.99996 12.5ZM7.60829 3.78335L8.58329 6.10002C7.43329 6.51669 6.52496 7.42502 6.09996 8.57502L3.78329 7.60835C4.45829 5.85002 5.84996 4.45835 7.60829 3.78335ZM3.78329 12.3917L6.09996 11.4334C6.52496 12.5834 7.42496 13.4834 8.57496 13.9L7.59996 16.2167C5.84996 15.5417 4.45829 14.15 3.78329 12.3917ZM12.4 16.2167L11.4416 13.9C12.5833 13.475 13.4833 12.575 13.9 11.425L16.2166 12.4C15.5416 14.15 14.15 15.5417 12.4 16.2167Z" fill="#627184"/>
</svg>
